<?xml version="1.0" encoding="UTF-8"?><svg id="Layer_1" xmlns="http://www.w3.org/2000/svg" viewBox="0 0 200 199.81"><defs><style>.cls-1{fill:#81c0dc;}</style></defs><path class="cls-1" d="M92.58,.09C40.82,3.89,0,47.08,0,99.82s44.77,99.99,100,99.99,100-44.76,100-99.99c0-40.75-24.37-75.8-59.32-91.39,0,0-48.12-24.04-48.12,33.23v15.63h-7.2c-6.99,0-13.7,4.88-13.7,12.31v33.79h-7.83c-3.67,0-6.61,1.71-6.61,3.84v8.94c0,2.13,2.93,3.86,6.61,3.86h7.83v41.19c0,2.71,2.79,3.92,6.5,3.92h1.82c3.7,0,6.92-1.21,6.92-3.92v-41.19h25.37v41.19c0,2.71,3.21,3.92,6.91,3.92h1.82c3.7,0,6.5-1.21,6.5-3.92v-41.19h7.82c3.67,0,6.6-1.73,6.6-3.86v-8.94c0-2.13-2.93-3.84-6.6-3.84h-7.82v-33.79c0-7.43-6.71-12.31-13.7-12.31h-7.2v-15.63s-2.35-36.88,29.35-20.77c29.94,13.66,50.75,43.87,50.75,78.92,0,47.89-38.82,86.7-86.7,86.7S13.3,147.7,13.3,99.82C13.3,57.21,44.05,21.77,84.56,14.5c.17-.03,.34-.06,.51-.09,1.07-3.38,3.82-9.34,9.69-14.4-1.25,.05-2.18,.09-2.18,.09Z"/></svg>